HIERARCHY
ROOT Hips
{
	OFFSET -0.001795 -0.223333 0.028219
	CHANNELS 6 Xposition Yposition Zposition Zrotation Yrotation Xrotation 
	JOINT LeftUpLeg
	{
		OFFSET 0.069520 -0.091406 -0.006815
		CHANNELS 3 Zrotation Yrotation Xrotation
		JOINT LeftLeg
		{
			OFFSET 0.034277 -0.375199 -0.004496
			CHANNELS 3 Zrotation Yrotation Xrotation
			JOINT LeftFoot
			{
				OFFSET -0.013596 -0.397961 -0.043693
				CHANNELS 3 Zrotation Yrotation Xrotation
				JOINT LeftToe
				{
					OFFSET 0.026358 -0.055791 0.119288
					CHANNELS 3 Zrotation Yrotation Xrotation
					End Site
					{
						OFFSET 0.000000 0.000000 0.000000
					}
				}
			}
		}
	}
	JOINT RightUpLeg
	{
		OFFSET -0.067670 -0.090522 -0.004320
		CHANNELS 3 Zrotation Yrotation Xrotation
		JOINT RightLeg
		{
			OFFSET -0.038290 -0.382569 -0.008850
			CHANNELS 3 Zrotation Yrotation Xrotation
			JOINT RightFoot
			{
				OFFSET 0.015774 -0.398415 -0.042312
				CHANNELS 3 Zrotation Yrotation Xrotation
				JOINT RightToe
				{
					OFFSET -0.025372 -0.048144 0.123348
					CHANNELS 3 Zrotation Yrotation Xrotation
					End Site
					{
						OFFSET 0.000000 0.000000 0.000000
					}
				}
			}
		}
	}
	JOINT Spine
	{
		OFFSET -0.002533 0.108963 -0.026696
		CHANNELS 3 Zrotation Yrotation Xrotation
		JOINT Spine1
		{
			OFFSET 0.005487 0.135180 0.001092
			CHANNELS 3 Zrotation Yrotation Xrotation
			JOINT Spine2
			{
				OFFSET 0.001457 0.052922 0.025425
				CHANNELS 3 Zrotation Yrotation Xrotation
				JOINT Neck
				{
					OFFSET -0.002778 0.213870 -0.042857
					CHANNELS 3 Zrotation Yrotation Xrotation
					JOINT Head
					{
						OFFSET 0.005152 0.064970 0.051349
						CHANNELS 3 Zrotation Yrotation Xrotation
						End Site
						{
							OFFSET 0.000000 0.000000 0.000000
						}
					}
				}
				JOINT LeftShoulder
				{
					OFFSET 0.078845 0.121749 -0.034090
					CHANNELS 3 Zrotation Yrotation Xrotation
					JOINT LeftArm
					{
						OFFSET 0.090977 0.030469 -0.008868
						CHANNELS 3 Zrotation Yrotation Xrotation
						JOINT LeftForeArm
						{
							OFFSET 0.259612 -0.012772 -0.027456
							CHANNELS 3 Zrotation Yrotation Xrotation
							JOINT LeftHand
							{
								OFFSET 0.249234 0.008986 -0.001171
								CHANNELS 3 Zrotation Yrotation Xrotation
								End Site
								{
									OFFSET 0.000000 0.000000 0.000000
								}
							}
						}
					}
				}
				JOINT RightShoulder
				{
					OFFSET -0.081759 0.118833 -0.038615
					CHANNELS 3 Zrotation Yrotation Xrotation
					JOINT RightArm
					{
						OFFSET -0.096012 0.032551 -0.009143
						CHANNELS 3 Zrotation Yrotation Xrotation
						JOINT RightForeArm
						{
							OFFSET -0.253742 -0.013329 -0.021401
							CHANNELS 3 Zrotation Yrotation Xrotation
							JOINT RightHand
							{
								OFFSET -0.255298 0.007772 -0.005559
								CHANNELS 3 Zrotation Yrotation Xrotation
								End Site
								{
									OFFSET 0.000000 0.000000 0.000000
								}
							}
						}
					}
				}
			}
		}
	}
}
MOTION
Frames: 6
Frame Time: 0.050000
-0.079248 0.942923 0.227368 0.309627 5.390768 5.344450 0.936395 -0.345459 -3.906608 2.346877 -0.301850 1.221180 -3.253425 -3.498858 5.462222 0.000000 0.000000 0.000000 -0.752655 0.686111 -7.105431 0.161219 0.128470 4.406773 -3.333751 -9.148345 3.092952 0.000000 0.000000 0.000000 -1.129400 0.153245 -4.704468 1.352684 -0.618970 -0.510821 0.299807 -3.425554 1.404733 1.396683 0.151631 -14.620091 0.000000 0.000000 0.000000 -9.968954 -9.406591 3.270201 -14.976950 -28.597474 0.731411 56.066992 -66.650127 -35.015966 0.000000 0.000000 0.000000 10.582824 14.984054 5.687444 21.262997 30.303859 2.339543 135.475542 84.671005 135.188680 0.000000 0.000000 0.000000 
-0.079091 0.943190 0.226023 0.357202 5.489467 5.382588 0.756586 -0.346577 -3.923673 2.350909 -0.285962 0.945277 -3.224050 -3.391852 5.535003 0.000000 0.000000 0.000000 -1.051593 0.665447 -6.991989 0.378588 0.085448 4.094882 -3.255742 -8.973137 3.145535 0.000000 0.000000 0.000000 -1.153732 0.146111 -4.425514 1.279113 -0.585977 -0.480549 0.504988 -3.435435 1.169642 1.039741 0.383333 -14.807722 0.000000 0.000000 0.000000 -9.948390 -9.335701 3.235327 -15.340409 -29.456777 0.877662 56.118051 -66.095944 -34.694581 0.000000 0.000000 0.000000 10.890830 14.596217 5.517043 21.997703 29.779172 2.413531 133.607526 81.320194 130.551502 0.000000 0.000000 0.000000 
-0.078827 0.943205 0.224593 0.468519 5.744209 5.474585 0.512909 -0.355482 -4.033441 2.408660 -0.278421 0.724846 -3.393444 -3.684615 5.559796 0.000000 0.000000 0.000000 -1.217885 0.666928 -7.084563 0.367180 0.086198 4.102940 -3.267026 -8.972133 3.045124 0.000000 0.000000 0.000000 -1.084616 0.141901 -4.252316 1.140050 -0.519208 -0.506928 0.587884 -3.545527 1.223236 0.807207 0.533779 -14.973215 0.000000 0.000000 0.000000 -10.295851 -9.115134 3.140014 -15.399257 -30.294216 0.962621 56.645611 -65.574887 -34.739716 0.000000 0.000000 0.000000 10.878248 14.485741 5.466071 22.685845 29.280899 2.460324 132.978459 77.963746 127.055109 0.000000 0.000000 0.000000 
-0.078437 0.943338 0.223109 0.568894 6.173178 5.559609 0.305736 -0.363415 -4.132913 2.308802 -0.256242 0.548916 -3.462299 -3.812364 5.513893 0.000000 0.000000 0.000000 -1.422518 0.651255 -6.999866 0.474252 0.056865 3.708561 -3.300031 -9.042215 3.075936 0.000000 0.000000 0.000000 -0.944782 0.136563 -4.031625 1.038297 -0.466206 -0.595668 0.557861 -3.539364 1.263484 0.464203 0.760836 -14.981278 0.000000 0.000000 0.000000 -10.625147 -9.150417 3.119887 -15.641963 -30.918697 1.066890 56.283547 -65.177109 -34.294769 0.000000 0.000000 0.000000 11.019002 14.184386 5.378006 22.845184 28.633715 2.372686 134.484889 75.516306 126.863166 0.000000 0.000000 0.000000 
-0.077986 0.943195 0.221713 0.625853 6.289583 5.676962 0.220338 -0.373936 -4.253456 2.377834 -0.247383 0.280292 -3.644945 -4.005972 5.763350 0.000000 0.000000 0.000000 -1.599112 0.654694 -7.122495 0.570918 0.041227 3.684621 -3.284718 -8.981404 2.960955 0.000000 0.000000 0.000000 -0.771716 0.138623 -4.048272 0.949875 -0.425397 -0.585236 0.510644 -3.565727 1.385626 0.378212 0.818715 -15.028898 0.000000 0.000000 0.000000 -10.926296 -8.883597 2.993661 -15.732225 -30.817868 1.066908 55.679060 -64.411432 -33.396740 0.000000 0.000000 0.000000 10.853854 14.074268 5.330988 23.067014 28.198394 2.331552 134.188852 73.758058 124.993788 0.000000 0.000000 0.000000 
-0.077569 0.943140 0.220498 0.694130 6.511924 5.641779 0.050985 -0.367863 -4.191515 2.314562 -0.225918 0.028341 -3.795171 -4.254593 5.800170 0.000000 0.000000 0.000000 -1.755541 0.639128 -7.016970 0.705906 0.020196 3.693510 -3.448077 -9.361040 2.978494 0.000000 0.000000 0.000000 -0.652165 0.134071 -3.876025 0.878094 -0.386617 -0.672919 0.437177 -3.632061 1.470189 0.118551 0.949543 -14.572680 0.000000 0.000000 0.000000 -11.472979 -8.966229 3.019709 -15.392816 -30.355902 0.959974 54.831337 -62.733739 -31.808821 0.000000 0.000000 0.000000 11.100270 13.956060 5.301660 22.772399 27.575780 2.172457 134.277207 72.593449 124.093893 0.000000 0.000000 0.000000 
